<svg width="1061" height="69" viewBox="0 0 1061 69" fill="none" xmlns="http://www.w3.org/2000/svg">
<g clip-path="url(#clip0_105_1561)">
<mask id="mask0_105_1561" style="mask-type:luminance" maskUnits="userSpaceOnUse" x="0" y="0" width="806" height="69">
<path d="M805.5 0H0V68.7H805.5V0Z" fill="white"/>
</mask>
<g mask="url(#mask0_105_1561)">
<path d="M43 1.40039V27.8004H16.3V1.40039H0V67.0004H16.3V42.4004H43V67.0004H59.2V1.40039H43Z" fill="#00CE7C"/>
</g>
<mask id="mask1_105_1561" style="mask-type:luminance" maskUnits="userSpaceOnUse" x="0" y="0" width="806" height="69">
<path d="M805.5 0H0V68.7H805.5V0Z" fill="white"/>
</mask>
<g mask="url(#mask1_105_1561)">
<path d="M88.1 1.40039H71.8V67.0004H88.1V1.40039Z" fill="#00CE7C"/>
</g>
<mask id="mask2_105_1561" style="mask-type:luminance" maskUnits="userSpaceOnUse" x="0" y="0" width="806" height="69">
<path d="M805.5 0H0V68.7H805.5V0Z" fill="white"/>
</mask>
<g mask="url(#mask2_105_1561)">
<mask id="mask3_105_1561" style="mask-type:luminance" maskUnits="userSpaceOnUse" x="0" y="0" width="806" height="69">
<path d="M805.5 0H0V68.7H805.5V0Z" fill="white"/>
</mask>
<g mask="url(#mask3_105_1561)">
<path d="M126.7 36.1004C133.8 36.1004 138.6 32.0004 138.6 25.5004C138.6 19.6004 133.9 15.9004 126.7 15.9004H116.9V36.1004H126.7ZM127 1.40039C144.2 1.40039 154.8 10.7004 154.8 25.4004C154.8 40.7004 143.6 50.3004 125.8 50.3004H116.9V67.0004H100.6V1.40039H127Z" fill="#00CE7C"/>
</g>
<mask id="mask4_105_1561" style="mask-type:luminance" maskUnits="userSpaceOnUse" x="0" y="0" width="806" height="69">
<path d="M805.5 0H0V68.7H805.5V0Z" fill="white"/>
</mask>
<g mask="url(#mask4_105_1561)">
<path d="M213.2 34.1996C213.2 23.8996 205.6 15.1996 195 15.1996C184.4 15.1996 176.8 23.8996 176.8 34.1996C176.8 44.4996 184.4 53.1996 195 53.1996C205.6 53.1996 213.2 44.4996 213.2 34.1996ZM229.7 34.1996C229.7 53.2996 214.8 68.2996 195 68.2996C175.2 68.2996 160.3 53.2996 160.3 34.1996C160.3 15.0996 175.3 0.0996094 195 0.0996094C214.7 0.0996094 229.7 15.0996 229.7 34.1996Z" fill="#00CE7C"/>
</g>
<mask id="mask5_105_1561" style="mask-type:luminance" maskUnits="userSpaceOnUse" x="0" y="0" width="806" height="69">
<path d="M805.5 0H0V68.7H805.5V0Z" fill="white"/>
</mask>
<g mask="url(#mask5_105_1561)">
<path d="M270.4 16.0004V67.0004H254.2V16.0004H233.3V1.40039H291.3V16.0004H270.4Z" fill="#00CE7C"/>
</g>
<mask id="mask6_105_1561" style="mask-type:luminance" maskUnits="userSpaceOnUse" x="0" y="0" width="806" height="69">
<path d="M805.5 0H0V68.7H805.5V0Z" fill="white"/>
</mask>
<g mask="url(#mask6_105_1561)">
<path d="M314.2 27.6004H343.4V41.5004H314.2V52.8004H347.5V67.0004H297.9V1.40039H347.5V15.6004H314.2V27.6004Z" fill="#00CE7C"/>
</g>
<mask id="mask7_105_1561" style="mask-type:luminance" maskUnits="userSpaceOnUse" x="0" y="0" width="806" height="69">
<path d="M805.5 0H0V68.7H805.5V0Z" fill="white"/>
</mask>
<g mask="url(#mask7_105_1561)">
<path d="M405.1 39.7996H421.9C419.8 56.7996 406.9 68.2996 389 68.2996C369.2 68.2996 354.3 53.8996 354.3 34.1996C354.3 14.4996 369.2 0.0996094 389 0.0996094C406.8 0.0996094 419.8 11.6996 421.9 28.5996H405.1C403.4 20.3996 397.6 15.2996 388.9 15.2996C378.2 15.2996 370.8 23.2996 370.8 34.1996C370.8 45.0996 378.2 53.0996 388.9 53.0996C397.6 53.0996 403.4 47.9996 405.1 39.7996Z" fill="#00CE7C"/>
</g>
<mask id="mask8_105_1561" style="mask-type:luminance" maskUnits="userSpaceOnUse" x="0" y="0" width="806" height="69">
<path d="M805.5 0H0V68.7H805.5V0Z" fill="white"/>
</mask>
<g mask="url(#mask8_105_1561)">
<path d="M457.9 20.0996L449.4 41.8996H466.4L457.9 20.0996ZM444.1 55.6996L439.7 66.9996H422.3L450.2 1.09961H465.8L493.6 66.9996H476.2L471.8 55.6996H444.1Z" fill="#00CE7C"/>
</g>
<mask id="mask9_105_1561" style="mask-type:luminance" maskUnits="userSpaceOnUse" x="0" y="0" width="806" height="69">
<path d="M805.5 0H0V68.7H805.5V0Z" fill="white"/>
</mask>
<g mask="url(#mask9_105_1561)">
<path d="M551.8 21.8004H535.4C534.5 16.9004 531.4 13.5004 524.8 13.5004C519.2 13.5004 515.4 15.8004 515.4 20.1004C515.4 23.7004 518 25.2004 522.9 26.3004L532.1 28.4004C544.1 31.0004 551.9 35.8004 551.9 47.1004C551.9 60.2004 541.1 68.4004 524.7 68.4004C510 68.4004 496.6 61.5004 495.1 45.3004H511.4C512.5 51.1004 517.5 54.6004 525.2 54.6004C531.3 54.6004 534.5 52.4004 534.5 48.8004C534.5 46.6004 533.1 44.3004 527.6 43.2004L516.8 40.8004C503.9 38.0004 497.8 31.9004 497.8 21.5004C497.8 8.4004 508.4 0.100403 523.8 0.100403C534.3 0.000402975 550.1 4.1004 551.8 21.8004Z" fill="#00CE7C"/>
</g>
<mask id="mask10_105_1561" style="mask-type:luminance" maskUnits="userSpaceOnUse" x="0" y="0" width="806" height="69">
<path d="M805.5 0H0V68.7H805.5V0Z" fill="white"/>
</mask>
<g mask="url(#mask10_105_1561)">
<path d="M559.5 60.3004C559.5 55.6004 563.5 51.9004 568.2 51.9004C573 51.9004 577.1 55.6004 577.1 60.3004C577.1 65.1004 573 68.8004 568.2 68.8004C563.4 68.7004 559.5 65.1004 559.5 60.3004Z" fill="#00635B"/>
</g>
<mask id="mask11_105_1561" style="mask-type:luminance" maskUnits="userSpaceOnUse" x="0" y="0" width="806" height="69">
<path d="M805.5 0H0V68.7H805.5V0Z" fill="white"/>
</mask>
<g mask="url(#mask11_105_1561)">
<path d="M632.1 39.7996H648.9C646.8 56.7996 633.9 68.2996 616 68.2996C596.2 68.2996 581.3 53.8996 581.3 34.1996C581.3 14.4996 596.2 0.0996094 616 0.0996094C633.8 0.0996094 646.8 11.6996 648.9 28.5996H632.1C630.4 20.3996 624.6 15.2996 615.9 15.2996C605.2 15.2996 597.8 23.2996 597.8 34.1996C597.8 45.0996 605.2 53.0996 615.9 53.0996C624.6 53.0996 630.3 47.9996 632.1 39.7996Z" fill="#00635B"/>
</g>
<mask id="mask12_105_1561" style="mask-type:luminance" maskUnits="userSpaceOnUse" x="0" y="0" width="806" height="69">
<path d="M805.5 0H0V68.7H805.5V0Z" fill="white"/>
</mask>
<g mask="url(#mask12_105_1561)">
<path d="M708.6 34.1996C708.6 23.8996 701 15.1996 690.4 15.1996C679.8 15.1996 672.2 23.8996 672.2 34.1996C672.2 44.4996 679.8 53.1996 690.4 53.1996C701 53.1996 708.6 44.4996 708.6 34.1996ZM725.1 34.1996C725.1 53.2996 710.2 68.2996 690.4 68.2996C670.6 68.2996 655.7 53.2996 655.7 34.1996C655.7 15.0996 670.6 0.0996094 690.4 0.0996094C710.1 0.0996094 725.1 15.0996 725.1 34.1996Z" fill="#00635B"/>
</g>
<mask id="mask13_105_1561" style="mask-type:luminance" maskUnits="userSpaceOnUse" x="0" y="0" width="806" height="69">
<path d="M805.5 0H0V68.7H805.5V0Z" fill="white"/>
</mask>
<g mask="url(#mask13_105_1561)">
<path d="M805.5 67.0004H789.2V34.1004L774.7 56.6004V56.7004H765.6V56.6004L751 33.9004L751.1 67.0004H734.8V1.40039H746.9L770.1 36.4004L793.4 1.40039H805.5V67.0004Z" fill="#00635B"/>
</g>
</g>
<mask id="mask14_105_1561" style="mask-type:luminance" maskUnits="userSpaceOnUse" x="904" y="0" width="157" height="68">
<path d="M1060.4 0.799805H904.8V67.8998H1060.4V0.799805Z" fill="white"/>
</mask>
<g mask="url(#mask14_105_1561)">
<mask id="mask15_105_1561" style="mask-type:luminance" maskUnits="userSpaceOnUse" x="904" y="0" width="157" height="68">
<path d="M1060.4 0.799805H904.8V67.8998H1060.4V0.799805Z" fill="white"/>
</mask>
<g mask="url(#mask15_105_1561)">
<path d="M949.1 36.5C949.1 46.4 943.6 52.8 935.1 52.8C926.6 52.8 921.2 46.4 921.2 36.5V1.5H905V36.2C905 56.4 916.7 67.9 935.2 67.9C953.8 67.9 965.5 56.3 965.5 36.2V1.5H949.3V36.5H949.1Z" fill="#EA0029"/>
</g>
<mask id="mask16_105_1561" style="mask-type:luminance" maskUnits="userSpaceOnUse" x="904" y="0" width="157" height="68">
<path d="M1060.4 0.799805H904.8V67.8998H1060.4V0.799805Z" fill="white"/>
</mask>
<g mask="url(#mask16_105_1561)">
<path d="M1060.4 1.5H1044.3V67.1H1060.4V1.5Z" fill="#EA0029"/>
</g>
<mask id="mask17_105_1561" style="mask-type:luminance" maskUnits="userSpaceOnUse" x="904" y="0" width="157" height="68">
<path d="M1060.4 0.799805H904.8V67.8998H1060.4V0.799805Z" fill="white"/>
</mask>
<g mask="url(#mask17_105_1561)">
<path d="M990.6 33.6998V32.1998C990.6 22.2998 996 15.8998 1004.5 15.8998H1005.1C1011.3 15.8998 1017 19.2998 1018.5 24.8998H1034.9C1032.3 9.49981 1021.4 0.799805 1005.3 0.799805H1004.7C986.2 0.799805 974.5 12.3998 974.5 32.4998V33.5998V33.9998V36.0998C974.5 56.2998 986.2 67.7998 1004.7 67.7998H1005.3C1021.3 67.7998 1032.2 59.0998 1034.9 43.6998H1018.5C1017 49.2998 1011.2 52.6998 1005.1 52.6998H1004.5C996 52.6998 990.6 46.2998 990.6 36.3998V33.9998V33.6998Z" fill="#EA0029"/>
</g>
</g>
<path d="M840.7 65.6998C837.7 65.6998 835.5 64.5998 834.1 62.2998C832.7 59.9998 832 56.8998 832 52.7998C832 48.4998 833 45.0998 835 42.4998C837 39.9998 840 38.6998 843.9 38.6998C845.6 38.6998 847.3 38.9998 848.9 39.4998V27.7998H855.8V65.0998H849.4L848.9 56.6998C847.6 62.6998 844.9 65.6998 840.7 65.6998ZM839.9 58.3998C840.6 59.6998 841.8 60.2998 843.4 60.2998C845 60.2998 846.4 59.2998 847.4 57.1998C848.4 55.0998 848.9 51.4998 848.9 46.2998V44.7998C847.5 44.2998 846 43.9998 844.5 43.9998C840.7 43.9998 838.8 46.8998 838.8 52.6998C838.8 55.2998 839.2 57.0998 839.9 58.3998Z" fill="#900048"/>
<path d="M884.3 53.7998H867.2C867.3 56.0998 867.8 57.7998 868.7 58.8998C869.5 59.9998 870.9 60.5998 872.7 60.5998C875.8 60.5998 877.5 59.2998 877.9 56.6998H884.3C884.2 58.1998 883.7 59.5998 882.8 60.9998C881.9 62.3998 880.6 63.4998 878.9 64.3998C877.2 65.2998 875 65.7998 872.5 65.7998C868.4 65.7998 865.4 64.5998 863.4 62.0998C861.4 59.5998 860.4 56.3998 860.4 52.2998C860.4 49.6998 860.9 47.3998 861.9 45.3998C862.9 43.3998 864.3 41.7998 866.2 40.5998C868.1 39.3998 870.4 38.7998 873.1 38.7998C876.7 38.7998 879.5 39.8998 881.5 41.9998C883.5 44.0998 884.5 47.1998 884.5 51.1998V53.7998H884.3ZM877.4 49.3998C877.4 47.5998 877 46.1998 876.2 45.2998C875.4 44.3998 874.2 43.8998 872.7 43.8998C869.7 43.8998 867.9 45.6998 867.4 49.3998H877.4Z" fill="#900048"/>
</g>
<defs>
<clipPath id="clip0_105_1561">
<rect width="1060.5" height="68.7" fill="white"/>
</clipPath>
</defs>
</svg>
